<svg width="40" height="40" viewBox="0 0 40 40" fill="none" xmlns="http://www.w3.org/2000/svg">
<mask id="path-1-outside-1_15_229" maskUnits="userSpaceOnUse" x="0.875" y="5.25" width="38" height="29" fill="black">
<rect fill="white" x="0.875" y="5.25" width="38" height="29"/>
<path fill-rule="evenodd" clip-rule="evenodd" d="M32.4855 6.72153C32.04 7.30062 31.4865 7.72694 30.7224 8.07958C30.1436 8.34671 29.1685 8.59445 28.6771 8.59922C28.0796 8.60501 27.9894 8.87199 27.9894 10.6356V12.0386H16.4596C5.22092 12.0386 4.91725 12.0425 4.43266 12.1922C3.01188 12.6313 2.10737 13.7578 1.93489 15.3033C1.8853 15.7473 1.86472 18.6723 1.8799 23.1192L1.90415 30.2256L2.08187 30.753C2.42942 31.7842 3.31046 32.657 4.34786 32.9979C4.8352 33.158 4.92249 33.159 17.8244 33.159C30.7013 33.159 30.8144 33.1577 31.2855 32.999C32.0788 32.7317 32.6779 32.284 33.1066 31.6381C33.6938 30.7536 33.6562 31.1909 33.6997 24.7263L33.7388 18.9142L34.1691 18.7388C34.8492 18.4617 35.7906 17.7808 36.5579 17.011C37.3356 16.2307 37.818 15.5591 38.0936 14.8731C38.2696 14.4349 38.2738 14.3609 38.2748 11.6995L38.2758 8.97446L38.0563 8.78563C37.9302 8.67705 37.7375 8.59672 37.6032 8.59672C37.0856 8.59672 36.1287 8.33568 35.4598 8.01199C34.7671 7.6768 34.2397 7.24806 33.652 6.54217C33.454 6.30444 33.3566 6.25 33.1285 6.25C32.8783 6.25 32.8097 6.3003 32.4855 6.72153ZM33.3928 8.01848C33.6535 8.29907 34.4374 8.84891 34.9273 9.09484C35.3795 9.32193 36.5874 9.69185 36.8765 9.69185H37.0633V12.0179V14.3439L36.8541 14.7574C36.5527 15.3531 35.8374 16.1683 35.0908 16.767C34.378 17.3385 33.4845 17.8271 33.1522 17.8271C32.8131 17.8271 31.9187 17.3348 31.1962 16.7505C30.4141 16.118 29.7169 15.3168 29.4166 14.7054L29.2018 14.2679V12.0056V9.74324L29.838 9.60635C30.9841 9.35963 32.3008 8.67979 32.9115 8.0195C33.1454 7.76668 33.1586 7.76668 33.3928 8.01848ZM34.9898 10.7042C34.9033 10.7393 34.3609 11.3012 33.7844 11.9531L32.7362 13.1381L32.016 12.4319C31.6199 12.0435 31.24 11.7257 31.1717 11.7257C30.7848 11.7257 30.4198 12.1555 30.525 12.4871C30.5507 12.568 31.0058 13.0635 31.5364 13.5879C32.3459 14.3882 32.5396 14.5417 32.7398 14.5417C32.871 14.5417 33.051 14.4802 33.1398 14.4048C33.4274 14.1609 35.6691 11.6137 35.7526 11.4358C35.8616 11.204 35.7064 10.8353 35.4508 10.7189C35.2292 10.6179 35.2043 10.6172 34.9898 10.7042ZM27.9894 13.5495C27.9894 14.7992 28.6154 15.981 29.9255 17.2045C30.6022 17.8365 31.789 18.6479 32.2299 18.78L32.5264 18.8688L32.5256 24.5472L32.5248 30.2256L32.3403 30.6167C32.1262 31.0708 31.6816 31.5383 31.2357 31.7782L30.9228 31.9465H17.8203H4.71778L4.40489 31.7785C3.94337 31.5307 3.50821 31.0721 3.2974 30.6116L3.11123 30.205L3.13226 22.5102L3.15331 14.8155L3.3254 14.4938C3.55162 14.0709 4.2073 13.4881 4.62196 13.3413C4.90936 13.2395 6.45561 13.2235 16.4709 13.2181L27.9894 13.2119V13.5495ZM8.45805 16.1068C8.10691 16.2483 8.02439 16.6669 8.28292 16.9955L8.44523 17.202L17.8373 17.1821L27.2294 17.1622L27.383 16.9565C27.4974 16.8033 27.5228 16.688 27.4827 16.5053C27.3718 16.0007 27.9213 16.0274 17.8046 16.0329C12.7149 16.0357 8.55286 16.0686 8.45805 16.1068ZM5.19769 19.7884C4.92829 20.0003 4.91671 20.3891 5.17258 20.6296L5.35367 20.7996H17.8312H30.3088L30.4789 20.6186C30.7195 20.3624 30.7036 19.9935 30.4429 19.7884L30.2367 19.6263H17.8203H5.40381L5.19769 19.7884ZM5.16162 25.987C4.99837 26.1608 4.99157 26.2327 4.99157 27.7775C4.99157 29.2455 5.00471 29.4032 5.14113 29.5716L5.29062 29.7563H8.00303H10.7154L10.9043 29.5368C11.0902 29.3206 11.093 29.2938 11.093 27.7537C11.093 26.1977 11.0921 26.189 10.901 25.998L10.709 25.806H8.02039H5.33176L5.16162 25.987ZM9.90285 27.7811L9.88056 28.5829L8.02274 28.6039L6.16493 28.6248V27.8021V26.9793H8.04504H9.92514L9.90285 27.7811Z"/>
</mask>
<path fill-rule="evenodd" clip-rule="evenodd" d="M32.4855 6.72153C32.04 7.30062 31.4865 7.72694 30.7224 8.07958C30.1436 8.34671 29.1685 8.59445 28.6771 8.59922C28.0796 8.60501 27.9894 8.87199 27.9894 10.6356V12.0386H16.4596C5.22092 12.0386 4.91725 12.0425 4.43266 12.1922C3.01188 12.6313 2.10737 13.7578 1.93489 15.3033C1.8853 15.7473 1.86472 18.6723 1.8799 23.1192L1.90415 30.2256L2.08187 30.753C2.42942 31.7842 3.31046 32.657 4.34786 32.9979C4.8352 33.158 4.92249 33.159 17.8244 33.159C30.7013 33.159 30.8144 33.1577 31.2855 32.999C32.0788 32.7317 32.6779 32.284 33.1066 31.6381C33.6938 30.7536 33.6562 31.1909 33.6997 24.7263L33.7388 18.9142L34.1691 18.7388C34.8492 18.4617 35.7906 17.7808 36.5579 17.011C37.3356 16.2307 37.818 15.5591 38.0936 14.8731C38.2696 14.4349 38.2738 14.3609 38.2748 11.6995L38.2758 8.97446L38.0563 8.78563C37.9302 8.67705 37.7375 8.59672 37.6032 8.59672C37.0856 8.59672 36.1287 8.33568 35.4598 8.01199C34.7671 7.6768 34.2397 7.24806 33.652 6.54217C33.454 6.30444 33.3566 6.25 33.1285 6.25C32.8783 6.25 32.8097 6.3003 32.4855 6.72153ZM33.3928 8.01848C33.6535 8.29907 34.4374 8.84891 34.9273 9.09484C35.3795 9.32193 36.5874 9.69185 36.8765 9.69185H37.0633V12.0179V14.3439L36.8541 14.7574C36.5527 15.3531 35.8374 16.1683 35.0908 16.767C34.378 17.3385 33.4845 17.8271 33.1522 17.8271C32.8131 17.8271 31.9187 17.3348 31.1962 16.7505C30.4141 16.118 29.7169 15.3168 29.4166 14.7054L29.2018 14.2679V12.0056V9.74324L29.838 9.60635C30.9841 9.35963 32.3008 8.67979 32.9115 8.0195C33.1454 7.76668 33.1586 7.76668 33.3928 8.01848ZM34.9898 10.7042C34.9033 10.7393 34.3609 11.3012 33.7844 11.9531L32.7362 13.1381L32.016 12.4319C31.6199 12.0435 31.24 11.7257 31.1717 11.7257C30.7848 11.7257 30.4198 12.1555 30.525 12.4871C30.5507 12.568 31.0058 13.0635 31.5364 13.5879C32.3459 14.3882 32.5396 14.5417 32.7398 14.5417C32.871 14.5417 33.051 14.4802 33.1398 14.4048C33.4274 14.1609 35.6691 11.6137 35.7526 11.4358C35.8616 11.204 35.7064 10.8353 35.4508 10.7189C35.2292 10.6179 35.2043 10.6172 34.9898 10.7042ZM27.9894 13.5495C27.9894 14.7992 28.6154 15.981 29.9255 17.2045C30.6022 17.8365 31.789 18.6479 32.2299 18.78L32.5264 18.8688L32.5256 24.5472L32.5248 30.2256L32.3403 30.6167C32.1262 31.0708 31.6816 31.5383 31.2357 31.7782L30.9228 31.9465H17.8203H4.71778L4.40489 31.7785C3.94337 31.5307 3.50821 31.0721 3.2974 30.6116L3.11123 30.205L3.13226 22.5102L3.15331 14.8155L3.3254 14.4938C3.55162 14.0709 4.2073 13.4881 4.62196 13.3413C4.90936 13.2395 6.45561 13.2235 16.4709 13.2181L27.9894 13.2119V13.5495ZM8.45805 16.1068C8.10691 16.2483 8.02439 16.6669 8.28292 16.9955L8.44523 17.202L17.8373 17.1821L27.2294 17.1622L27.383 16.9565C27.4974 16.8033 27.5228 16.688 27.4827 16.5053C27.3718 16.0007 27.9213 16.0274 17.8046 16.0329C12.7149 16.0357 8.55286 16.0686 8.45805 16.1068ZM5.19769 19.7884C4.92829 20.0003 4.91671 20.3891 5.17258 20.6296L5.35367 20.7996H17.8312H30.3088L30.4789 20.6186C30.7195 20.3624 30.7036 19.9935 30.4429 19.7884L30.2367 19.6263H17.8203H5.40381L5.19769 19.7884ZM5.16162 25.987C4.99837 26.1608 4.99157 26.2327 4.99157 27.7775C4.99157 29.2455 5.00471 29.4032 5.14113 29.5716L5.29062 29.7563H8.00303H10.7154L10.9043 29.5368C11.0902 29.3206 11.093 29.2938 11.093 27.7537C11.093 26.1977 11.0921 26.189 10.901 25.998L10.709 25.806H8.02039H5.33176L5.16162 25.987ZM9.90285 27.7811L9.88056 28.5829L8.02274 28.6039L6.16493 28.6248V27.8021V26.9793H8.04504H9.92514L9.90285 27.7811Z" fill="black"/>
<path fill-rule="evenodd" clip-rule="evenodd" d="M32.4855 6.72153C32.04 7.30062 31.4865 7.72694 30.7224 8.07958C30.1436 8.34671 29.1685 8.59445 28.6771 8.59922C28.0796 8.60501 27.9894 8.87199 27.9894 10.6356V12.0386H16.4596C5.22092 12.0386 4.91725 12.0425 4.43266 12.1922C3.01188 12.6313 2.10737 13.7578 1.93489 15.3033C1.8853 15.7473 1.86472 18.6723 1.8799 23.1192L1.90415 30.2256L2.08187 30.753C2.42942 31.7842 3.31046 32.657 4.34786 32.9979C4.8352 33.158 4.92249 33.159 17.8244 33.159C30.7013 33.159 30.8144 33.1577 31.2855 32.999C32.0788 32.7317 32.6779 32.284 33.1066 31.6381C33.6938 30.7536 33.6562 31.1909 33.6997 24.7263L33.7388 18.9142L34.1691 18.7388C34.8492 18.4617 35.7906 17.7808 36.5579 17.011C37.3356 16.2307 37.818 15.5591 38.0936 14.8731C38.2696 14.4349 38.2738 14.3609 38.2748 11.6995L38.2758 8.97446L38.0563 8.78563C37.9302 8.67705 37.7375 8.59672 37.6032 8.59672C37.0856 8.59672 36.1287 8.33568 35.4598 8.01199C34.7671 7.6768 34.2397 7.24806 33.652 6.54217C33.454 6.30444 33.3566 6.25 33.1285 6.25C32.8783 6.25 32.8097 6.3003 32.4855 6.72153ZM33.3928 8.01848C33.6535 8.29907 34.4374 8.84891 34.9273 9.09484C35.3795 9.32193 36.5874 9.69185 36.8765 9.69185H37.0633V12.0179V14.3439L36.8541 14.7574C36.5527 15.3531 35.8374 16.1683 35.0908 16.767C34.378 17.3385 33.4845 17.8271 33.1522 17.8271C32.8131 17.8271 31.9187 17.3348 31.1962 16.7505C30.4141 16.118 29.7169 15.3168 29.4166 14.7054L29.2018 14.2679V12.0056V9.74324L29.838 9.60635C30.9841 9.35963 32.3008 8.67979 32.9115 8.0195C33.1454 7.76668 33.1586 7.76668 33.3928 8.01848ZM34.9898 10.7042C34.9033 10.7393 34.3609 11.3012 33.7844 11.9531L32.7362 13.1381L32.016 12.4319C31.6199 12.0435 31.24 11.7257 31.1717 11.7257C30.7848 11.7257 30.4198 12.1555 30.525 12.4871C30.5507 12.568 31.0058 13.0635 31.5364 13.5879C32.3459 14.3882 32.5396 14.5417 32.7398 14.5417C32.871 14.5417 33.051 14.4802 33.1398 14.4048C33.4274 14.1609 35.6691 11.6137 35.7526 11.4358C35.8616 11.204 35.7064 10.8353 35.4508 10.7189C35.2292 10.6179 35.2043 10.6172 34.9898 10.7042ZM27.9894 13.5495C27.9894 14.7992 28.6154 15.981 29.9255 17.2045C30.6022 17.8365 31.789 18.6479 32.2299 18.78L32.5264 18.8688L32.5256 24.5472L32.5248 30.2256L32.3403 30.6167C32.1262 31.0708 31.6816 31.5383 31.2357 31.7782L30.9228 31.9465H17.8203H4.71778L4.40489 31.7785C3.94337 31.5307 3.50821 31.0721 3.2974 30.6116L3.11123 30.205L3.13226 22.5102L3.15331 14.8155L3.3254 14.4938C3.55162 14.0709 4.2073 13.4881 4.62196 13.3413C4.90936 13.2395 6.45561 13.2235 16.4709 13.2181L27.9894 13.2119V13.5495ZM8.45805 16.1068C8.10691 16.2483 8.02439 16.6669 8.28292 16.9955L8.44523 17.202L17.8373 17.1821L27.2294 17.1622L27.383 16.9565C27.4974 16.8033 27.5228 16.688 27.4827 16.5053C27.3718 16.0007 27.9213 16.0274 17.8046 16.0329C12.7149 16.0357 8.55286 16.0686 8.45805 16.1068ZM5.19769 19.7884C4.92829 20.0003 4.91671 20.3891 5.17258 20.6296L5.35367 20.7996H17.8312H30.3088L30.4789 20.6186C30.7195 20.3624 30.7036 19.9935 30.4429 19.7884L30.2367 19.6263H17.8203H5.40381L5.19769 19.7884ZM5.16162 25.987C4.99837 26.1608 4.99157 26.2327 4.99157 27.7775C4.99157 29.2455 5.00471 29.4032 5.14113 29.5716L5.29062 29.7563H8.00303H10.7154L10.9043 29.5368C11.0902 29.3206 11.093 29.2938 11.093 27.7537C11.093 26.1977 11.0921 26.189 10.901 25.998L10.709 25.806H8.02039H5.33176L5.16162 25.987ZM9.90285 27.7811L9.88056 28.5829L8.02274 28.6039L6.16493 28.6248V27.8021V26.9793H8.04504H9.92514L9.90285 27.7811Z" stroke="black" stroke-width="0.625791" mask="url(#path-1-outside-1_15_229)"/>
</svg>
