<svg width="40" height="40" viewBox="0 0 40 40" fill="none" xmlns="http://www.w3.org/2000/svg">
<path d="M5.20031 15.312L5.16705 15.2788L4.98131 15.0929L4.98128 15.0929L5.06159 15.0126L5.20031 15.312ZM5.20031 15.312H5.24736H8.39246H11.4239V18.4399V21.6438L11.1398 22.0246L11.2308 22.0925L11.1398 22.0246C10.0656 23.4644 9.309 25.4021 9.0799 27.2951C8.86589 29.0641 9.13808 31.0048 9.83804 32.7065C11.2306 36.0922 14.1753 38.5315 17.8203 39.3217C18.3876 39.4447 19.2045 39.505 20.0161 39.505C20.8276 39.505 21.6445 39.4447 22.2118 39.3217C24.4273 38.8415 26.1699 37.8986 27.7468 36.3262C29.7872 34.2915 30.883 31.8362 31.0103 29.01C31.1213 26.5481 30.3374 23.9615 28.8923 22.0246L28.8013 22.0925L28.8923 22.0246L28.6082 21.6438V18.4399V15.312H31.6397H34.7847H34.8318L34.8651 15.2788L35.0508 15.0929C35.0508 15.0929 35.0508 15.0929 35.0508 15.0929C35.3306 14.8131 35.3376 14.404 35.0698 14.1114C35.0587 14.0993 35.0343 14.0774 35.0059 14.0524C34.9747 14.0249 34.9315 13.9875 34.8771 13.9408C34.7682 13.8473 34.6136 13.7158 34.4183 13.5506C34.0277 13.2203 33.4741 12.7548 32.7983 12.1884C31.4466 11.0556 29.6057 9.51868 27.6018 7.85118C24.6228 5.37228 22.7905 3.85585 21.6805 2.95913C21.1257 2.51096 20.75 2.21643 20.5011 2.03367C20.377 1.94247 20.2823 1.87752 20.2117 1.83494C20.1764 1.8137 20.1449 1.79664 20.1173 1.78456C20.0926 1.77378 20.059 1.76145 20.0235 1.76145C19.9879 1.76145 19.9542 1.77388 19.9295 1.78469C19.9018 1.79683 19.8702 1.81397 19.8348 1.83532C19.7639 1.87814 19.6688 1.94346 19.544 2.03521C19.2939 2.21907 18.916 2.51539 18.3579 2.96635C17.2413 3.86865 15.3977 5.39461 12.3999 7.88934L12.4725 7.97662M5.20031 15.312L12.4725 7.97662M12.4725 7.97662L12.3999 7.88934C10.3836 9.56736 8.53563 11.11 7.18259 12.2436M12.4725 7.97662L7.18259 12.2436M19.1539 23.7083L19.1329 23.5967L19.2969 23.5659V22.946C19.2969 22.6219 19.3 22.4261 19.328 22.2907C19.3428 22.2191 19.365 22.1607 19.3986 22.1065C19.4311 22.054 19.4717 22.01 19.516 21.9658C19.516 21.9658 19.516 21.9658 19.516 21.9657L19.5963 22.0461L19.1539 23.7083ZM19.1539 23.7083L19.1329 23.5967C18.9001 23.6404 18.5992 23.7688 18.3231 23.9239C18.0468 24.0791 17.7802 24.2695 17.6205 24.4462C16.4012 25.7959 16.7819 27.9212 18.3938 28.7448M19.1539 23.7083L18.3938 28.7448M18.3938 28.7448C18.5028 28.8005 18.7277 28.8796 18.994 28.9618C19.2638 29.045 19.5856 29.1342 19.8948 29.2094C20.1999 29.2836 20.5069 29.3675 20.7554 29.4428C21.0093 29.5197 21.1887 29.5838 21.2492 29.6173L21.2492 29.6174C21.6141 29.8195 21.8269 30.2184 21.8607 30.6421C21.8945 31.0658 21.7477 31.4939 21.4194 31.7521C21.1199 31.9877 20.8049 32.0603 19.9937 32.0303C19.6707 32.0184 19.4752 32.0042 19.3315 31.9761C19.1935 31.949 19.103 31.9091 18.9916 31.8403C18.6265 31.6146 18.3896 31.2342 18.3352 30.7757C18.2905 30.3978 18.1217 30.1084 17.8779 29.9802C17.6253 29.8473 17.3288 29.9062 17.0832 30.1518L17.0832 30.1518C16.9911 30.244 16.921 30.3216 16.8931 30.4472C16.8682 30.5594 16.8791 30.704 16.8995 30.9223C17.0108 32.1144 17.8688 33.1137 19.0319 33.4066L19.2969 33.4733V34.0984C19.2969 34.4222 19.3001 34.6179 19.328 34.7533C19.3428 34.8248 19.3651 34.8833 19.3986 34.9374C19.4312 34.9899 19.4717 35.0339 19.516 35.0781C19.516 35.0781 19.516 35.0781 19.516 35.0782L19.5963 34.9978M18.3938 28.7448L20.7688 23.6092L21.0334 23.6762C22.1463 23.9579 23.032 25.0065 23.1368 26.1629C23.1547 26.3594 23.1633 26.4949 23.1368 26.6039C23.1077 26.7238 23.0393 26.8017 22.9486 26.8924C22.7031 27.1379 22.4067 27.1966 22.1541 27.0636C21.9104 26.9353 21.7416 26.646 21.6969 26.2682C21.6426 25.8101 21.4061 25.4298 21.0399 25.2022C20.9195 25.1274 20.8391 25.09 20.7069 25.0682C20.5664 25.045 20.3678 25.0397 20.0098 25.0397C19.6263 25.0397 19.4347 25.0431 19.3013 25.069C19.1788 25.0928 19.106 25.1354 18.9606 25.2361L18.9605 25.2361C18.461 25.582 18.2521 26.2851 18.482 26.8353C18.5468 26.9905 18.6815 27.1548 18.8594 27.2968C19.0364 27.4382 19.2488 27.5516 19.46 27.6102C20.9777 28.0308 21.3289 28.1409 21.6505 28.3052C23.9138 29.462 23.4858 32.7817 21.0089 33.4045L20.7352 33.4733V34.0984C20.7352 34.4222 20.7321 34.6179 20.7041 34.7533C20.6893 34.8248 20.6671 34.8833 20.6335 34.9374C20.601 34.9899 20.5604 35.0339 20.5161 35.0781C20.5161 35.0781 20.5161 35.0781 20.5161 35.0782L20.4358 34.9978M19.5963 34.9978C19.7134 35.115 19.8686 35.1837 20.0161 35.1837C20.1635 35.1837 20.3187 35.115 20.4358 34.9978M19.5963 34.9978C19.4253 34.8269 19.4104 34.7551 19.4104 34.0984V33.3848L19.5963 34.9978ZM20.4358 34.9978C20.6068 34.8269 20.6217 34.7551 20.6217 34.0984V33.3848M20.4358 34.9978L20.6217 33.3848M20.6217 33.3848L20.9812 33.2944C23.3617 32.6958 23.7639 29.5129 21.5988 28.4064C21.29 28.2485 20.9526 28.1417 19.4297 27.7196C18.9745 27.5934 18.526 27.2353 18.3772 26.8791L20.6217 33.3848ZM21.3043 29.518C21.1579 29.4369 20.5357 29.2484 19.9217 29.099C19.3076 28.9497 18.6434 28.7448 18.4455 28.6437L21.3043 29.518ZM21.3043 29.518C22.1143 29.9668 22.2181 31.2683 21.4896 31.8414C21.1566 32.1033 20.806 32.174 19.9895 32.1438C19.3448 32.1199 19.174 32.0865 18.9319 31.9369L21.3043 29.518ZM7.18259 12.2436C6.50609 12.8104 5.95322 13.275 5.56488 13.6032M7.18259 12.2436L5.56488 13.6032M5.56488 13.6032C5.37074 13.7672 5.21755 13.8973 5.11054 13.9891M5.56488 13.6032L5.11054 13.9891M5.11054 13.9891C5.05707 14.035 5.01487 14.0715 4.98475 14.098M5.11054 13.9891L4.98475 14.098M4.98475 14.098C4.95863 14.121 4.93347 14.1433 4.92258 14.1558L4.98475 14.098ZM32.5314 13.8403L30.2139 13.8737C29.0215 13.8909 28.359 13.9034 27.9796 13.9272C27.7907 13.9391 27.6648 13.954 27.5763 13.976C27.4829 13.9991 27.4244 14.0316 27.376 14.0799L27.376 14.08C27.3259 14.13 27.2938 14.1912 27.2712 14.2915C27.2496 14.387 27.2348 14.5266 27.2231 14.7413C27.1995 15.1728 27.1872 15.9356 27.1699 17.3221L27.1348 20.1237L26.7155 19.8021C24.7313 18.2805 22.0594 17.4227 19.6325 17.5297C17.1748 17.6382 14.853 18.5204 12.9234 20.0786L12.8623 20.1279V17.3741C12.8623 15.9596 12.8604 15.2059 12.8412 14.7852C12.8316 14.5757 12.8175 14.441 12.7949 14.346C12.7706 14.244 12.7361 14.1866 12.6923 14.1324C12.6923 14.1324 12.6923 14.1324 12.6923 14.1324L12.5477 13.9537L12.5143 13.9123L12.4611 13.9116L9.83454 13.8737L7.51471 13.8403L13.6633 8.71709C15.4187 7.2544 17.0248 5.92875 18.1982 4.97128C18.785 4.49251 19.2632 4.10604 19.5978 3.8406C19.7652 3.70779 19.896 3.60577 19.9863 3.53775C20.0158 3.51546 20.0406 3.4972 20.0605 3.48288C20.0824 3.50014 20.1101 3.52223 20.1434 3.54904C20.2338 3.62171 20.3644 3.72791 20.5308 3.86413C20.8635 4.13651 21.3389 4.52824 21.9218 5.01028C23.0875 5.97433 24.6829 7.29925 26.4264 8.75236L32.5314 13.8403ZM17.0637 19.3298C17.7557 19.1067 18.1318 19.0276 19.2212 18.8758C19.6413 18.8173 21.1942 18.9041 21.7993 19.0198L17.0637 19.3298ZM17.0985 19.4379L17.0985 19.4379C17.782 19.2176 18.1511 19.1396 19.2369 18.9883C19.4341 18.9608 19.9161 18.9669 20.4345 18.9958C20.9501 19.0246 21.4833 19.075 21.7779 19.1313C27.5057 20.2273 30.9557 26.1619 29.0648 31.6645C28.0957 34.4849 25.7404 36.7757 22.8875 37.6725C19.5574 38.7192 15.806 37.8195 13.3388 35.3831C12.5388 34.5931 12.0398 33.9159 11.5357 32.9364C10.8401 31.5848 10.5308 30.4172 10.4653 28.8956C10.3054 25.1805 12.3822 21.6741 15.7522 19.9738C16.0579 19.8196 16.6653 19.5775 17.0985 19.4379Z" fill="black" stroke="black" stroke-width="0.227105"/>
</svg>
