<svg width="40" height="40" viewBox="0 0 40 40" fill="none" xmlns="http://www.w3.org/2000/svg">
<path fill-rule="evenodd" clip-rule="evenodd" d="M13.7536 0.0964034C9.14424 0.697397 5.17384 3.15081 2.58228 6.9995C0.706299 9.78544 -0.259729 13.6005 0.06056 16.9576C0.663125 23.2725 4.75492 28.4557 10.7032 30.4391C14.5608 31.7254 18.6421 31.4779 22.3795 29.7308L22.9884 29.4462L27.8545 34.2951C32.2614 38.6864 32.7723 39.1705 33.2681 39.4253C35.175 40.4054 37.2148 40.1186 38.6667 38.6666C40.1186 37.2145 40.4053 35.1744 39.4254 33.2673C39.1706 32.7714 38.6867 32.2607 34.2987 27.856L29.4532 22.9922L29.8135 22.1848C30.8333 19.8995 31.2309 18.0592 31.2301 15.6278C31.2298 14.076 31.1257 13.1843 30.7873 11.8342C29.4253 6.39999 25.2409 2.08329 19.8726 0.574742C18.0448 0.0611245 15.5312 -0.135374 13.7536 0.0964034ZM16.9213 1.90095C17.7798 1.96306 18.9575 2.20915 19.9011 2.52361C24.0519 3.90692 27.3496 7.20946 28.7268 11.3624C29.2334 12.89 29.3575 13.7372 29.3568 15.6669C29.3564 17.0014 29.3253 17.5407 29.2182 18.0685C28.6112 21.0584 27.4184 23.3222 25.3713 25.3695C23.3241 27.4169 21.0606 28.6099 18.0711 29.2169C17.5434 29.324 17.0042 29.3552 15.6698 29.3556C14.1608 29.356 13.8385 29.3332 13.0496 29.17C10.3221 28.6058 8.08177 27.4306 6.0988 25.5238C3.10811 22.6481 1.60272 18.7751 1.87217 14.65C2.31728 7.83579 7.79895 2.33392 14.6139 1.86129C15.4191 1.80544 15.6571 1.80951 16.9213 1.90095ZM15.1546 5.49682C15.0433 5.55729 14.8146 5.84554 14.6462 6.1374C14.2003 6.91056 13.493 7.57742 12.7144 7.95907C11.6351 8.4881 10.6794 8.66199 8.8378 8.66434L7.6372 8.6659L7.38199 8.92115C7.15767 9.1455 7.11363 9.26142 7.01829 9.87939C6.85733 10.9227 6.8768 13.8104 7.0513 14.7674C7.40686 16.717 7.92198 18.1879 8.82473 19.8305C9.94125 21.8622 11.869 23.8813 13.7927 25.0339C14.5284 25.4746 15.4102 25.8752 15.645 25.8752C15.7629 25.8752 16.2391 25.6808 16.7031 25.4434C21.5348 22.971 24.6147 17.4231 24.3667 11.6384C24.3418 11.0576 24.2824 10.3184 24.2346 9.99571C24.046 8.72168 23.9696 8.66606 22.4053 8.66544C19.9494 8.6645 18.4843 8.21964 17.3834 7.14054C17.1201 6.8824 16.791 6.46938 16.652 6.22266C16.2097 5.43745 15.7096 5.19503 15.1546 5.49682ZM16.8822 9.18797C18.086 10.0067 19.4935 10.4209 21.393 10.5155L22.4233 10.5668L22.4795 11.2395C22.6973 13.8472 22.0499 16.7592 20.7492 19.0225C19.6805 20.8824 17.8176 22.7388 16.1319 23.6239L15.5778 23.9148L14.8066 23.4445C11.5512 21.4595 9.38123 18.0677 8.86462 14.1571C8.74456 13.248 8.70952 11.549 8.79759 10.9062L8.84734 10.5433H9.4449C11.7686 10.5433 13.8803 9.79209 15.1614 8.50977L15.5916 8.07923L16.0609 8.51392C16.319 8.75305 16.6886 9.0564 16.8822 9.18797ZM18.4494 12.4378C18.3435 12.4938 17.5516 13.4439 16.6896 14.549C15.8276 15.6543 15.097 16.5603 15.0661 16.5625C15.0352 16.5647 14.5425 16.1497 13.9711 15.6402C13.3997 15.1306 12.8554 14.673 12.7615 14.6233C12.0961 14.2706 11.2848 14.9826 11.4929 15.7366C11.5554 15.9627 11.8681 16.2811 13.132 17.4059C14.7353 18.8327 14.9873 18.9936 15.4406 18.8798C15.7256 18.8082 15.8219 18.6966 17.9742 15.9435C19.7505 13.6713 19.7761 13.6333 19.7761 13.2655C19.7761 12.7499 19.4866 12.4197 18.9915 12.3706C18.7882 12.3505 18.5614 12.3786 18.4494 12.4378ZM37.8984 34.3624C38.0842 34.7608 38.1174 34.9324 38.1174 35.4967C38.1174 36.2922 37.9085 36.8199 37.3789 37.3622C36.8598 37.8938 36.3029 38.1172 35.4972 38.1172C34.2854 38.1172 34.5404 38.3245 29.2612 33.0478L24.6285 28.4174L25.3781 27.8307C26.207 27.1819 27.3525 26.0198 27.9988 25.1722L28.4188 24.6213L33.0491 29.2572C37.1475 33.3605 37.7046 33.947 37.8984 34.3624Z" fill="black"/>
</svg>
